<?xml version="1.0" encoding="utf-8"?>
<!-- Generator: Adobe Illustrator 24.0.0, SVG Export Plug-In . SVG Version: 6.00 Build 0)  -->
<svg version="1.1" id="Capa_1" xmlns="http://www.w3.org/2000/svg" xmlns:xlink="http://www.w3.org/1999/xlink" x="0px" y="0px"
	 viewBox="0 0 698.1 283" style="enable-background:new 0 0 698.1 283;" xml:space="preserve">
<style type="text/css">
	.st0{enable-background:new    ;}
	.st1{fill:#FFFFFF;}
</style>
<title>THMlogoBLANCO</title>
<g class="st0">
	<path class="st1" d="M316.2,57.6v14.1h-6.8c-5.8,0-10.3-1.4-13.6-4.3c-3.3-2.9-4.9-7.6-4.9-14.2V38.3h-6.1V24.5h6.1V13.1h16.6v11.5
		h8.5v13.8h-8.5v15.2c0,1.5,0.3,2.5,1,3.1c0.6,0.6,1.7,0.9,3.2,0.9H316.2z"/>
	<path class="st1" d="M358.8,26.8c3.7,1.9,6.7,4.7,8.8,8.4c2.1,3.7,3.2,8,3.2,12.8c0,4.9-1.1,9.2-3.2,12.9c-2.1,3.6-5.1,6.5-8.8,8.4
		c-3.7,2-8,2.9-12.7,2.9s-9-1-12.7-2.9c-3.8-2-6.7-4.8-8.8-8.4c-2.1-3.6-3.2-7.9-3.2-12.9c0-4.9,1.1-9.2,3.2-12.9
		c2.1-3.6,5.1-6.4,8.8-8.4c3.8-1.9,8-2.9,12.7-2.9S355.1,24.9,358.8,26.8z M340.4,40.8c-1.5,1.7-2.3,4.1-2.3,7.3
		c0,3.3,0.8,5.7,2.3,7.4c1.5,1.7,3.4,2.5,5.7,2.5c2.2,0,4.1-0.9,5.6-2.6c1.5-1.7,2.3-4.2,2.3-7.4c0-3.2-0.8-5.6-2.3-7.3
		s-3.4-2.5-5.6-2.5C343.8,38.2,341.9,39.1,340.4,40.8z"/>
	<path class="st1" d="M403.5,26.1c2.4,1.4,4.2,3.4,5.4,5.9V9.4h16.6v62.3h-16.6v-7.5c-1.2,2.5-3,4.5-5.4,5.9
		c-2.4,1.4-5.3,2.1-8.6,2.1c-3.8,0-7.2-1-10.2-2.9s-5.4-4.7-7.2-8.4c-1.7-3.7-2.6-8-2.6-12.9c0-4.9,0.9-9.2,2.6-12.9
		c1.7-3.6,4.1-6.4,7.2-8.4s6.4-2.9,10.2-2.9C398.3,23.9,401.1,24.6,403.5,26.1z M394.2,41c-1.6,1.7-2.4,4.1-2.4,7.1
		c0,3.1,0.8,5.5,2.4,7.2c1.6,1.7,3.7,2.6,6.3,2.6c2.5,0,4.5-0.9,6.1-2.6c1.6-1.7,2.4-4.1,2.4-7.2c0-3-0.8-5.3-2.4-7.1
		c-1.6-1.7-3.7-2.6-6.1-2.6C397.8,38.4,395.8,39.3,394.2,41z"/>
	<path class="st1" d="M469.6,26.8c3.7,1.9,6.7,4.7,8.8,8.4c2.1,3.7,3.2,8,3.2,12.8c0,4.9-1.1,9.2-3.2,12.9c-2.1,3.6-5.1,6.5-8.8,8.4
		c-3.7,2-8,2.9-12.7,2.9s-9-1-12.7-2.9c-3.8-2-6.7-4.8-8.8-8.4c-2.1-3.6-3.2-7.9-3.2-12.9c0-4.9,1.1-9.2,3.2-12.9
		c2.1-3.6,5.1-6.4,8.8-8.4c3.8-1.9,8-2.9,12.7-2.9S465.9,24.9,469.6,26.8z M451.2,40.8c-1.5,1.7-2.3,4.1-2.3,7.3
		c0,3.3,0.8,5.7,2.3,7.4c1.5,1.7,3.4,2.5,5.7,2.5c2.2,0,4.1-0.9,5.6-2.6c1.5-1.7,2.3-4.2,2.3-7.4c0-3.2-0.8-5.6-2.3-7.3
		c-1.5-1.7-3.4-2.5-5.6-2.5C454.6,38.2,452.7,39.1,451.2,40.8z"/>
	<path class="st1" d="M521.1,28.5c3.7,3,6,7,7,12h-15.5c-0.4-1.7-1.2-2.9-2.4-3.8c-1.2-0.8-2.7-1.3-4.4-1.3c-1.2,0-2.2,0.3-2.8,0.8
		c-0.6,0.5-1,1.3-1,2.2c0,1.2,0.7,2.1,2.1,2.7c1.4,0.6,3.6,1.2,6.8,2c3.6,0.8,6.7,1.6,9.1,2.5c2.4,0.9,4.5,2.4,6.2,4.4
		c1.8,2,2.7,4.7,2.7,8.2c0,2.8-0.8,5.2-2.3,7.3c-1.5,2.1-3.7,3.8-6.6,5c-2.9,1.2-6.3,1.8-10.2,1.8c-6.6,0-11.9-1.4-15.8-4.3
		c-3.9-2.9-6.3-7-7.2-12.3h15.9c0.2,1.7,1,3,2.2,3.9c1.3,0.8,2.8,1.3,4.8,1.3c1.3,0,2.3-0.3,2.9-0.8c0.7-0.6,1-1.3,1-2.2
		c0-1.3-0.7-2.3-2.1-2.9c-1.4-0.6-3.7-1.2-6.9-1.9c-3.6-0.7-6.5-1.5-8.8-2.4c-2.3-0.9-4.3-2.3-6-4.2c-1.7-1.9-2.6-4.6-2.6-8
		c0-4.3,1.7-7.7,5-10.4c3.3-2.7,8-4,14.1-4C512.4,23.9,517.4,25.4,521.1,28.5z"/>
</g>
<g class="st0">
	<path class="st1" d="M332.5,111.9c3.1,3.6,4.6,8.5,4.6,14.8v27.4h-16.4v-25.3c0-2.7-0.7-4.9-2.1-6.4c-1.4-1.5-3.4-2.3-5.8-2.3
		c-2.5,0-4.4,0.8-5.9,2.4c-1.5,1.6-2.2,3.8-2.2,6.6v25.1h-16.6V91.8h16.6v23c1.3-2.5,3.3-4.5,5.9-6.1c2.6-1.5,5.6-2.3,9.1-2.3
		C325.1,106.4,329.4,108.2,332.5,111.9z"/>
	<path class="st1" d="M372.1,108.4c2.4,1.4,4.3,3.4,5.4,5.9v-7.5H394v47.2h-16.5v-7.5c-1.2,2.5-3,4.5-5.4,5.9
		c-2.4,1.4-5.3,2.1-8.6,2.1c-3.8,0-7.2-1-10.2-2.9s-5.4-4.7-7.2-8.4c-1.7-3.7-2.6-8-2.6-12.9c0-4.9,0.9-9.2,2.6-12.9
		c1.7-3.6,4.1-6.4,7.2-8.4s6.4-2.9,10.2-2.9C366.8,106.3,369.7,107,372.1,108.4z M362.7,123.3c-1.6,1.7-2.4,4.1-2.4,7.1
		c0,3.1,0.8,5.5,2.4,7.2c1.6,1.7,3.7,2.6,6.3,2.6c2.5,0,4.5-0.9,6.1-2.6c1.6-1.7,2.4-4.1,2.4-7.2c0-3-0.8-5.3-2.4-7.1
		c-1.6-1.7-3.7-2.6-6.1-2.6C366.4,120.7,364.3,121.6,362.7,123.3z"/>
	<path class="st1" d="M440.1,111.4c4.2,3.4,6.8,8.1,7.8,14.1h-17.5c-0.4-1.6-1.1-2.9-2.1-3.7c-1-0.9-2.4-1.3-4-1.3
		c-2,0-3.7,0.9-4.9,2.6c-1.3,1.7-1.9,4.2-1.9,7.5c0,3.3,0.6,5.8,1.9,7.5c1.3,1.7,2.9,2.5,4.9,2.5c1.6,0,3-0.4,4-1.3
		c1-0.9,1.8-2.1,2.1-3.7h17.5c-1.1,6-3.7,10.7-7.8,14.1c-4.2,3.4-9.3,5.1-15.4,5.1c-4.7,0-8.9-1-12.5-2.9s-6.4-4.7-8.5-8.4
		c-2-3.7-3-8-3-12.9c0-4.9,1-9.2,3-12.9c2-3.6,4.9-6.4,8.5-8.4c3.6-1.9,7.8-2.9,12.5-2.9C430.8,106.3,435.9,108,440.1,111.4z"/>
	<path class="st1" d="M499.5,133.5h-31.2c0.3,5.3,2.6,8,7,8c1.6,0,3-0.4,4-1.2c1.1-0.8,1.8-1.8,2.2-3.1H499c-0.6,3.3-2,6.3-4.1,9
		c-2.1,2.7-4.8,4.8-8.1,6.3c-3.3,1.5-6.8,2.3-10.7,2.3c-4.7,0-8.9-1-12.5-2.9s-6.4-4.7-8.5-8.4c-2-3.7-3-8-3-12.9
		c0-4.9,1-9.2,3-12.9c2-3.6,4.9-6.4,8.5-8.4c3.6-1.9,7.8-2.9,12.5-2.9c4.7,0,8.9,1,12.5,2.9c3.6,1.9,6.4,4.6,8.4,8.2
		c2,3.5,3,7.6,3,12.3C499.9,130.8,499.8,132.1,499.5,133.5z M481.2,121.1c-1.3-1.2-3-1.9-5.1-1.9c-2.2,0-4,0.6-5.3,1.9
		c-1.4,1.2-2.2,3.1-2.4,5.5h14.7C483.2,124.1,482.5,122.3,481.2,121.1z"/>
	<path class="st1" d="M582.7,111.8c3.3,3.6,5,8.5,5,14.8v27.4h-16.5v-25.3c0-2.5-0.7-4.5-2.1-5.9c-1.4-1.4-3.3-2.1-5.6-2.1
		c-2.5,0-4.4,0.7-5.9,2.1c-1.4,1.4-2.1,3.5-2.1,6.1v25.1h-16.5v-25.3c0-2.5-0.7-4.5-2.1-5.9c-1.4-1.4-3.3-2.1-5.6-2.1
		c-2.5,0-4.4,0.7-5.9,2.1c-1.4,1.4-2.1,3.5-2.1,6.1v25.1h-16.6v-47.2h16.6v7.2c1.3-2.4,3.2-4.2,5.6-5.6c2.4-1.4,5.2-2.1,8.5-2.1
		c3.5,0,6.7,0.8,9.3,2.4c2.7,1.6,4.8,3.8,6.3,6.7c1.6-2.7,3.8-5,6.6-6.6c2.7-1.7,5.8-2.5,9.2-2.5
		C574.7,106.4,579.3,108.2,582.7,111.8z"/>
	<path class="st1" d="M631.4,109.2c3.7,1.9,6.7,4.7,8.8,8.4c2.1,3.7,3.2,8,3.2,12.8c0,4.9-1.1,9.2-3.2,12.9
		c-2.1,3.6-5.1,6.5-8.8,8.4c-3.7,2-8,2.9-12.7,2.9s-9-1-12.7-2.9c-3.8-2-6.7-4.8-8.8-8.4c-2.1-3.6-3.2-7.9-3.2-12.9
		c0-4.9,1.1-9.2,3.2-12.9c2.1-3.6,5.1-6.4,8.8-8.4c3.8-1.9,8-2.9,12.7-2.9S627.7,107.2,631.4,109.2z M613,123.1
		c-1.5,1.7-2.3,4.1-2.3,7.3c0,3.3,0.8,5.7,2.3,7.4c1.5,1.7,3.4,2.5,5.7,2.5c2.2,0,4.1-0.9,5.6-2.6c1.5-1.7,2.3-4.2,2.3-7.4
		c0-3.2-0.8-5.6-2.3-7.3c-1.5-1.7-3.4-2.5-5.6-2.5C616.4,120.6,614.5,121.4,613,123.1z"/>
	<path class="st1" d="M682.9,110.8c3.7,3,6,7,7,12h-15.5c-0.4-1.7-1.2-2.9-2.4-3.8c-1.2-0.8-2.7-1.3-4.4-1.3c-1.2,0-2.2,0.3-2.8,0.8
		c-0.6,0.5-1,1.3-1,2.2c0,1.2,0.7,2.1,2.1,2.7c1.4,0.6,3.6,1.2,6.8,2c3.6,0.8,6.7,1.6,9.1,2.5c2.4,0.9,4.5,2.4,6.2,4.4
		c1.8,2,2.7,4.7,2.7,8.2c0,2.8-0.8,5.2-2.3,7.3c-1.5,2.1-3.7,3.8-6.6,5c-2.9,1.2-6.3,1.8-10.2,1.8c-6.6,0-11.9-1.4-15.8-4.3
		c-3.9-2.9-6.3-7-7.2-12.3h15.9c0.2,1.7,1,3,2.2,3.9c1.3,0.8,2.8,1.3,4.8,1.3c1.3,0,2.3-0.3,2.9-0.8c0.7-0.6,1-1.3,1-2.2
		c0-1.3-0.7-2.3-2.1-2.9c-1.4-0.6-3.7-1.2-6.9-1.9c-3.6-0.7-6.5-1.5-8.8-2.4c-2.3-0.9-4.3-2.3-6-4.2c-1.7-1.9-2.6-4.6-2.6-8
		c0-4.3,1.7-7.7,5-10.4c3.3-2.7,8-4,14.1-4C674.2,106.3,679.2,107.8,682.9,110.8z"/>
</g>
<g class="st0">
	<path class="st1" d="M364.2,197.3c3.3,3.6,5,8.5,5,14.8v27.4h-16.5v-25.3c0-2.5-0.7-4.5-2.1-5.9c-1.4-1.4-3.3-2.1-5.6-2.1
		c-2.5,0-4.4,0.7-5.9,2.1s-2.1,3.5-2.1,6.1v25.1h-16.5v-25.3c0-2.5-0.7-4.5-2.1-5.9c-1.4-1.4-3.3-2.1-5.6-2.1
		c-2.5,0-4.4,0.7-5.9,2.1c-1.4,1.4-2.1,3.5-2.1,6.1v25.1h-16.6v-47.2h16.6v7.2c1.3-2.4,3.2-4.2,5.6-5.6c2.4-1.4,5.2-2.1,8.5-2.1
		c3.5,0,6.7,0.8,9.3,2.4c2.7,1.6,4.8,3.8,6.3,6.7c1.6-2.8,3.8-5,6.6-6.6c2.7-1.7,5.8-2.5,9.2-2.5
		C356.2,191.9,360.8,193.7,364.2,197.3z"/>
	<path class="st1" d="M426.4,192.4v47.2h-16.5v-7.9c-1.3,2.5-3.3,4.5-5.9,6.1c-2.6,1.5-5.6,2.3-9.1,2.3c-5.4,0-9.7-1.8-12.8-5.4
		s-4.7-8.6-4.7-14.9v-27.4h16.5v25.3c0,2.7,0.7,4.8,2.1,6.4c1.4,1.5,3.4,2.3,5.8,2.3c2.5,0,4.4-0.8,5.9-2.4c1.5-1.6,2.2-3.8,2.2-6.7
		v-25H426.4z M413.5,180.7l-21,8.3V178l21-9.5V180.7z"/>
	<path class="st1" d="M468.5,196.3c3.7,3,6,7,7,12H460c-0.4-1.7-1.2-2.9-2.4-3.8c-1.2-0.8-2.7-1.3-4.4-1.3c-1.2,0-2.2,0.3-2.8,0.8
		c-0.6,0.5-1,1.3-1,2.2c0,1.2,0.7,2.1,2.1,2.7c1.4,0.6,3.6,1.2,6.8,2c3.6,0.8,6.7,1.6,9.1,2.5c2.4,0.9,4.5,2.4,6.2,4.4
		c1.8,2,2.7,4.7,2.7,8.2c0,2.8-0.8,5.2-2.3,7.3c-1.5,2.1-3.7,3.8-6.6,5c-2.9,1.2-6.3,1.8-10.2,1.8c-6.6,0-11.9-1.4-15.8-4.3
		c-3.9-2.9-6.3-7-7.2-12.3h15.9c0.2,1.7,1,3,2.2,3.9s2.8,1.3,4.8,1.3c1.3,0,2.3-0.3,2.9-0.8c0.7-0.6,1-1.3,1-2.2
		c0-1.3-0.7-2.3-2.1-2.9c-1.4-0.6-3.7-1.2-6.9-1.9c-3.6-0.7-6.5-1.5-8.8-2.4c-2.3-0.9-4.3-2.3-6-4.2c-1.7-1.9-2.6-4.6-2.6-8
		c0-4.3,1.7-7.7,5-10.4c3.3-2.7,8-4,14.1-4C459.8,191.8,464.8,193.3,468.5,196.3z"/>
	<path class="st1" d="M484.7,173.2c1.8-1.6,4.2-2.4,7.1-2.4c2.9,0,5.2,0.8,7,2.4c1.7,1.6,2.6,3.6,2.6,6.1c0,2.4-0.9,4.3-2.7,5.9
		c-1.8,1.6-4.1,2.4-6.9,2.4c-2.9,0-5.3-0.8-7.1-2.4c-1.8-1.6-2.7-3.5-2.7-5.9C482,176.8,482.9,174.8,484.7,173.2z M499.9,192.4v47.2
		h-16.6v-47.2H499.9z"/>
	<path class="st1" d="M546.1,196.9c4.2,3.4,6.8,8.1,7.8,14.1h-17.5c-0.4-1.6-1.1-2.9-2.1-3.7c-1-0.9-2.4-1.3-4-1.3
		c-2,0-3.7,0.9-4.9,2.6c-1.3,1.7-1.9,4.2-1.9,7.5c0,3.3,0.6,5.8,1.9,7.5c1.3,1.7,2.9,2.5,4.9,2.5c1.6,0,3-0.4,4-1.3
		c1-0.9,1.8-2.1,2.1-3.7h17.5c-1.1,6-3.7,10.7-7.8,14.1c-4.2,3.4-9.3,5.1-15.4,5.1c-4.7,0-8.9-1-12.5-2.9s-6.4-4.7-8.5-8.4
		c-2-3.7-3-8-3-12.9c0-4.9,1-9.2,3-12.9c2-3.6,4.9-6.4,8.5-8.4c3.6-1.9,7.8-2.9,12.5-2.9C536.8,191.8,541.9,193.5,546.1,196.9z"/>
	<path class="st1" d="M586.7,193.9c2.4,1.4,4.3,3.4,5.4,5.9v-7.5h16.5v47.2h-16.5v-7.5c-1.2,2.5-3,4.5-5.4,5.9s-5.3,2.1-8.6,2.1
		c-3.8,0-7.2-1-10.2-2.9c-3-1.9-5.4-4.7-7.2-8.4c-1.7-3.7-2.6-8-2.6-12.9c0-4.9,0.9-9.2,2.6-12.9c1.7-3.6,4.1-6.4,7.2-8.4
		c3-1.9,6.4-2.9,10.2-2.9C581.4,191.8,584.3,192.5,586.7,193.9z M577.3,208.8c-1.6,1.7-2.4,4.1-2.4,7.1c0,3.1,0.8,5.5,2.4,7.2
		c1.6,1.7,3.7,2.6,6.3,2.6c2.5,0,4.5-0.9,6.1-2.6c1.6-1.7,2.4-4.1,2.4-7.2c0-3-0.8-5.3-2.4-7.1c-1.6-1.7-3.7-2.6-6.1-2.6
		C581,206.2,578.9,207.1,577.3,208.8z"/>
</g>
<g>
	<rect x="19.6" y="96.3" class="st1" width="50" height="147.9"/>
	<rect x="39" y="213.9" class="st1" width="11.3" height="61.9"/>
	<circle class="st1" cx="44.6" cy="54" r="26"/>
</g>
<g>
	<rect x="107.4" y="77.4" class="st1" width="50" height="166.8"/>
	<rect x="127.4" y="213.9" class="st1" width="10" height="61.9"/>
	<circle class="st1" cx="132.4" cy="35.2" r="26"/>
</g>
<g>
	<rect x="194.2" y="115.9" class="st1" width="55" height="128.4"/>
	<rect x="216.7" y="213.9" class="st1" width="10" height="61.9"/>
	<circle class="st1" cx="221.7" cy="73.7" r="26"/>
</g>
</svg>
