<svg id="Capa_1" data-name="Capa 1" xmlns="http://www.w3.org/2000/svg" xmlns:xlink="http://www.w3.org/1999/xlink" viewBox="0 0 435.16 217.17"><defs><linearGradient id="Degradado_sin_nombre_6" x1="187" y1="57.8" x2="310.02" y2="57.8" gradientUnits="userSpaceOnUse"><stop offset="0.25" stop-color="#fff"/><stop offset="0.46" stop-color="#fcfcfc"/><stop offset="0.64" stop-color="#f1f1f3"/><stop offset="0.81" stop-color="#e0e0e3"/><stop offset="0.97" stop-color="#c7c8ce"/><stop offset="1" stop-color="#c2c3c9"/></linearGradient></defs><title>mg-group_logoBlanco</title><path d="M222.44,115.32a14.73,14.73,0,0,1-8.26-2.53,61.5,61.5,0,1,1,95.84-51,14.8,14.8,0,1,1-29.6,0,31.91,31.91,0,1,0-49.7,26.48,14.8,14.8,0,0,1-8.28,27.07Z" transform="translate(-0.18 -0.28)" style="fill:#452a6e"/><path d="M33.29,113.65a14.77,14.77,0,0,1-9-3.05,61.5,61.5,0,1,1,98.89-48.83,14.8,14.8,0,0,1-29.6,0A31.91,31.91,0,1,0,42.3,87.11a14.79,14.79,0,0,1-9,26.54Z" transform="translate(-0.18 -0.28)" style="fill:#fff"/><path d="M129,115.28a14.76,14.76,0,0,1-8.27-2.53,61.5,61.5,0,1,1,95.91-51,14.81,14.81,0,0,1-29.61,0,31.91,31.91,0,1,0-49.73,26.46,14.79,14.79,0,0,1-8.3,27.05Z" transform="translate(-0.18 -0.28)" style="fill:#fff"/><path d="M222.44,115.32a14.73,14.73,0,0,1-8.26-2.53,61.5,61.5,0,1,1,95.84-51,14.8,14.8,0,1,1-29.6,0,31.91,31.91,0,1,0-49.7,26.48,14.8,14.8,0,0,1-8.28,27.07Z" transform="translate(-0.18 -0.28)" style="fill:url(#Degradado_sin_nombre_6)"/><path d="M381.91,108.49c.84-.73,1.67-1.46,2.48-2.23a61.14,61.14,0,0,0,19-43.05,14.8,14.8,0,0,0-29.6-.69,31.9,31.9,0,1,1-31.9-32.65H343A14.8,14.8,0,0,0,343.37.3a61.49,61.49,0,1,0-2.89,122.94l1.44,0h0A31.9,31.9,0,1,1,310,155.15a14.8,14.8,0,1,0-29.6,0,61.51,61.51,0,1,0,101.49-46.66Z" transform="translate(-0.18 -0.28)" style="fill:#fff"/><ellipse cx="421.51" cy="95.19" rx="13.65" ry="13.65" style="fill:#fff"/><path d="M38.71,216.34a28.08,28.08,0,0,1-7.15-2.72A2.81,2.81,0,0,1,30.23,211a3,3,0,0,1,.85-2.1,2.74,2.74,0,0,1,2.1-.92,3.81,3.81,0,0,1,1.33.29,26.72,26.72,0,0,0,12.15,2.8q11.28,0,11.27-12v-4.94a16.63,16.63,0,0,1-12.59,5.6,17.76,17.76,0,0,1-8.44-2.17,17.52,17.52,0,0,1-6.74-6.49,22.11,22.11,0,0,1,0-21,17.42,17.42,0,0,1,6.74-6.48,17.78,17.78,0,0,1,8.44-2.18,16.63,16.63,0,0,1,12.59,5.6v-1.84a3.31,3.31,0,0,1,1-2.39,3.12,3.12,0,0,1,2.36-1,3.23,3.23,0,0,1,2.39,1,3.27,3.27,0,0,1,1,2.39v32.93q0,9.28-4.5,14.29t-12.82,5A34.66,34.66,0,0,1,38.71,216.34Zm14.14-24.16a21.93,21.93,0,0,0,5.08-4V173a21.93,21.93,0,0,0-5.08-4,12.43,12.43,0,0,0-6.12-1.47,12.47,12.47,0,0,0-9,3.35q-3.49,3.34-3.5,9.69t3.5,9.68a12.48,12.48,0,0,0,9,3.36A12.43,12.43,0,0,0,52.85,192.18Z" transform="translate(-0.18 -0.28)" style="fill:#fff"/><path d="M77.23,199.18a3.19,3.19,0,0,1-1-2.36v-31.6a3.31,3.31,0,0,1,1-2.39,3.14,3.14,0,0,1,2.36-1A3.41,3.41,0,0,1,83,165.22v3.17q5.16-6.93,11.56-6.93h.37a3.06,3.06,0,0,1,2.32,1,3.26,3.26,0,0,1,.92,2.36,3,3,0,0,1-1,2.28,3.45,3.45,0,0,1-2.43.89H94.4a12.54,12.54,0,0,0-6.49,1.73A14.88,14.88,0,0,0,83,174.43v22.39a3.12,3.12,0,0,1-1,2.36,3.31,3.31,0,0,1-2.39,1A3.21,3.21,0,0,1,77.23,199.18Z" transform="translate(-0.18 -0.28)" style="fill:#fff"/><path d="M110,198.08a16.61,16.61,0,0,1-6.6-6.89,23.6,23.6,0,0,1,0-20.41,16.55,16.55,0,0,1,6.6-6.89,21.4,21.4,0,0,1,19.81,0,16.75,16.75,0,0,1,6.63,6.89,23.24,23.24,0,0,1,0,20.41,16.81,16.81,0,0,1-6.63,6.89,21.4,21.4,0,0,1-19.81,0ZM125.74,193a11.19,11.19,0,0,0,4.57-4.42,17,17,0,0,0,0-15.25,11,11,0,0,0-4.57-4.38,12.88,12.88,0,0,0-5.78-1.36,13.09,13.09,0,0,0-5.86,1.36,10.81,10.81,0,0,0-4.53,4.38,17.31,17.31,0,0,0,0,15.25A11,11,0,0,0,114.1,193a12.74,12.74,0,0,0,5.86,1.4A12.54,12.54,0,0,0,125.74,193Z" transform="translate(-0.18 -0.28)" style="fill:#fff"/><path d="M154,198.59a12.43,12.43,0,0,1-4.57-5.23,16.63,16.63,0,0,1-1.58-7.29V165.15a3.15,3.15,0,0,1,1-2.36,3.31,3.31,0,0,1,2.39-1,3.28,3.28,0,0,1,3.32,3.32v20.18q0,9,8.1,9a11.71,11.71,0,0,0,6.6-1.92,23.69,23.69,0,0,0,5.48-5.15v-22.1a3.16,3.16,0,0,1,1-2.36,3.31,3.31,0,0,1,2.39-1,3.28,3.28,0,0,1,3.32,3.32v31.6a3.31,3.31,0,0,1-1,2.39,3.12,3.12,0,0,1-2.36,1,3.23,3.23,0,0,1-2.39-1,3.27,3.27,0,0,1-1-2.39v-3a24.25,24.25,0,0,1-6,4.93,15.22,15.22,0,0,1-7.66,1.85A12.7,12.7,0,0,1,154,198.59Z" transform="translate(-0.18 -0.28)" style="fill:#fff"/><path d="M194,216.09a3.37,3.37,0,0,1-1-2.4V165.15a3.26,3.26,0,0,1,3.31-3.32,3.35,3.35,0,0,1,2.4,1,3.15,3.15,0,0,1,1,2.36v1.91a16.94,16.94,0,0,1,12.6-5.6,17.32,17.32,0,0,1,8.65,2.32,17.58,17.58,0,0,1,6.63,6.78,22.58,22.58,0,0,1,0,20.85,17.58,17.58,0,0,1-6.63,6.78,17.32,17.32,0,0,1-8.65,2.32,16.94,16.94,0,0,1-12.6-5.6v18.78a3.28,3.28,0,0,1-3.39,3.39A3.16,3.16,0,0,1,194,216.09Zm26.16-25.31q3.32-3.47,3.31-9.8t-3.31-9.79a11.59,11.59,0,0,0-8.77-3.47,14,14,0,0,0-6.37,1.51,18.24,18.24,0,0,0-5.27,4v15.47a18,18,0,0,0,5.27,4,13.87,13.87,0,0,0,6.37,1.51A11.58,11.58,0,0,0,220.15,190.78Z" transform="translate(-0.18 -0.28)" style="fill:#fff"/></svg>